# xmcd CD database file
#
# Track frame offsets:
#	150
#	29629
#	70271
#	133146
#	176945
#	197790
#	258109
#
# Disc length: 3868 seconds
#
# Revision: 0
# Processed by: cddbd v1.5.2PL0 Copyright (c) Steve Scherf et al.
# Submitted via: CDex 1.70beta2
#
DISCID=6a0f1a07
DTITLE=Various Artist - More Jazz
DYEAR=2009
DGENRE=Jazz
TTITLE0=You Don't Know What Love Is - Freddie Hubbard
TTITLE1=Tangerine - Dexter Gordon
TTITLE2=That's All - Gene Ammons
TTITLE3=Sticky Wicket - Dexter Gordon
TTITLE4=People Get A Little Funny When They Get A Little Money - Eddie Harris
TTITLE5=Lonesome Lover Blues - Dexter Gordon
TTITLE6=I'm Not So Sure - Art Blakey And The Jazz Messengers
EXTD=YEAR: 2009
EXTT0=
EXTT1=
EXTT2=
EXTT3=
EXTT4=
EXTT5=
EXTT6=
PLAYORDER=
